<?xml version="1.0" encoding="utf-8"?>
<!-- Generator: Adobe Illustrator 26.0.1, SVG Export Plug-In . SVG Version: 6.00 Build 0)  -->
<svg version="1.1" id="Layer_1" xmlns="http://www.w3.org/2000/svg" xmlns:xlink="http://www.w3.org/1999/xlink" x="0px" y="0px"
	 viewBox="0 0 1000 1000" style="enable-background:new 0 0 1000 1000;" xml:space="preserve">
<style type="text/css">
	.st0{fill:#50423B;}
	.st1{display:none;}
	.st2{display:inline;}
	.st3{fill:#423B37;}
	.st4{display:inline;fill:#423B37;}
</style>
<path class="st0" d="M629.62,999.1c93.23-6.11,168.34-41.66,225.38-106.09c4.27-4.82,8.01-9.86,11.92-14.83
	c-4.53-4.41-8.89-8.92-13.75-13.14c-64.96-56.43-144.03-81.3-237.26-75.18s-168.34,41.66-225.38,106.09
	c-4.27,4.82-8.01,9.86-11.92,14.83c4.53,4.41,8.89,8.92,13.75,13.14C457.32,980.34,536.39,1005.21,629.62,999.1z"/>
<path class="st0" d="M968.18,552.32c-26.77,89.51-78.19,154.79-153.72,196.01c-5.65,3.08-11.4,5.6-17.11,8.31
	c-3.29-5.4-6.71-10.66-9.74-16.34c-40.5-75.92-47.09-158.55-20.33-248.06c26.77-89.51,78.19-154.79,153.72-196.01
	c5.65-3.08,11.4-5.6,17.11-8.31c3.29,5.4,6.71,10.66,9.74,16.34C988.35,380.18,994.94,462.81,968.18,552.32z"/>
<path class="st0" d="M400.17,711.17c93.23-6.11,168.34-41.66,225.38-106.09c4.27-4.82,8.01-9.86,11.92-14.83
	c-4.53-4.41-8.89-8.92-13.75-13.14c-64.96-56.43-144.03-81.3-237.26-75.19c-93.23,6.11-168.34,41.66-225.38,106.09
	c-4.27,4.82-8.01,9.86-11.92,14.83c4.53,4.41,8.89,8.92,13.75,13.14C227.87,692.41,306.95,717.28,400.17,711.17z"/>
<path class="st0" d="M738.73,264.4c-26.77,89.51-78.19,154.79-153.72,196.01c-5.65,3.08-11.4,5.6-17.11,8.31
	c-3.29-5.4-6.71-10.66-9.74-16.34c-40.5-75.92-47.09-158.55-20.33-248.06C564.6,114.81,616.02,49.53,691.55,8.31
	c5.65-3.08,11.4-5.6,17.11-8.31c3.29,5.4,6.71,10.66,9.74,16.34C758.91,92.26,765.5,174.89,738.73,264.4z"/>
<path class="st0" d="M362.73,126.81c59.99,71.62,86.17,150.49,79,236.24c-0.54,6.42-1.6,12.6-2.48,18.86
	c-6.32-0.23-12.59-0.27-19-0.86c-85.67-7.98-158.28-47.97-218.27-119.6s-86.17-150.49-79-236.24c0.54-6.42,1.6-12.6,2.48-18.86
	c6.32,0.23,12.59,0.27,19,0.86C230.13,15.19,302.74,55.18,362.73,126.81z"/>
<g class="st1">
	<g class="st2">
		<path class="st3" d="M205.26,466.34v180.57h-42.81V541.14l-53.14,72.53l-52.89-72.53v105.77H13.62V466.34h40.67l55.28,80.21
			l54.9-80.21H205.26z"/>
		<path class="st3" d="M288.28,650.56c-17.88,0-32.99-6.67-45.33-19.9s-18.51-29.72-18.51-49.49s6.17-36.26,18.51-49.49
			c12.34-13.22,27.45-19.9,45.33-19.9c15.61,0,28.21,5.29,37.9,15.74v-12.09h41.3v131.46h-41.3v-12.09
			c-9.95,10.45-22.54,15.74-37.78,15.74H288.28z M295.71,614.04c9.19,0,16.75-3.02,22.67-9.19c5.92-6.17,8.94-14.1,8.94-23.8
			c0-9.7-3.02-17.5-8.94-23.55c-5.92-6.04-13.47-9.07-22.54-9.07c-8.94,0-16.24,3.02-22.04,9.07c-5.79,6.04-8.69,13.85-8.69,23.55
			c0,9.82,2.9,17.75,8.69,23.8c5.79,6.04,13.1,9.07,22.04,9.07L295.71,614.04z"/>
		<path class="st3" d="M529.19,515.45l-53.01,131.46h-46.46l-53.14-131.46h45.33l30.98,84.49l31.23-84.49H529.19z"/>
		<path class="st3" d="M668.49,515.45v131.46h-41.3v-13.73c-9.95,11.46-22.92,17.25-38.91,17.38c-17,0-29.84-5.29-38.41-15.74
			s-12.84-24.68-12.84-42.69v-76.56h41.18v68.25c0,19.01,7.81,28.58,23.55,28.71c7.93,0,14.1-2.9,18.64-8.81
			c4.53-5.92,6.8-13.98,6.8-24.18v-64.09H668.49z"/>
		<path class="st3" d="M775.81,512.05c17,0,29.84,5.29,38.41,15.74s12.84,24.68,12.84,42.69v76.56h-41.18v-68.37
			c0-19.01-7.81-28.58-23.55-28.58c-7.93,0-14.1,2.9-18.64,8.69c-4.53,5.79-6.8,13.73-6.8,23.92v64.22h-41.3V515.45h41.3v13.6
			c9.95-11.46,22.92-17.25,38.91-17.25V512.05z"/>
		<path class="st3" d="M915.74,650.68c-20.4,0-37.27-6.67-50.62-19.9s-20.02-29.72-20.02-49.49s6.67-36.26,20.02-49.49
			s30.22-19.9,50.62-19.9c20.4,0,37.27,6.55,50.62,19.77c13.35,13.22,20.02,29.72,20.02,49.49s-6.67,36.26-20.02,49.49
			c-13.35,13.22-30.22,19.9-50.62,19.9V650.68z M915.74,613.66c9.32,0,16.75-3.02,22.29-9.07c5.54-6.04,8.31-13.85,8.31-23.29
			c0-9.44-2.77-17.12-8.31-23.17c-5.54-6.04-12.97-9.07-22.29-9.07c-9.32,0-16.75,3.02-22.29,9.07c-5.54,6.04-8.31,13.73-8.31,23.17
			c0,9.44,2.77,17.12,8.31,23.17c5.54,6.04,12.97,9.07,22.29,9.07V613.66z"/>
	</g>
	<g class="st2">
		<path class="st3" d="M387.42,682.65v180.57H344.6v-72.4h-71.14v72.4h-42.81V682.65h42.81v69.38h71.14v-69.38H387.42z"/>
		<path class="st3" d="M544.6,731.76v131.46h-41.3V849.5c-9.95,11.46-22.92,17.25-38.91,17.38c-17,0-29.84-5.29-38.41-15.74
			s-12.84-24.68-12.84-42.69v-76.56h41.18v68.25c0,19.01,7.81,28.58,23.55,28.71c7.93,0,14.1-2.9,18.64-8.81
			c4.53-5.92,6.8-13.98,6.8-24.18v-64.09H544.6z"/>
		<path class="st3" d="M650.78,728.24c17.88,0,32.99,6.55,45.33,19.77c12.34,13.22,18.51,29.72,18.51,49.49
			c0,19.77-6.17,36.26-18.51,49.49c-12.34,13.22-27.45,19.9-45.33,19.9c-15.24,0-27.83-5.29-37.78-15.74v12.09h-41.3V674.97h41.3
			v68.88c9.7-10.45,22.29-15.74,37.9-15.74L650.78,728.24z M643.1,830.48c8.94,0,16.24-3.02,22.04-9.19s8.69-14.1,8.69-23.8
			c0-9.7-2.9-17.5-8.69-23.55c-5.79-6.04-13.1-9.07-22.04-9.07c-9.19,0-16.75,3.02-22.67,9.07c-5.92,6.04-8.81,13.85-8.81,23.55
			c0,9.82,3.02,17.75,8.94,23.8c5.92,6.04,13.47,9.07,22.67,9.07L643.1,830.48z"/>
	</g>
	<path class="st4" d="M487.63,435.95c-2.21-0.39-4.32-0.95-6.47-1.45c0.28-2.18,0.49-4.36,0.89-6.56
		c5.45-29.47,21.59-53.41,48.31-71.98c26.02-18.08,53.45-24.63,82.13-20.2c2.08-11.15,3.15-22.79,3.15-34.96
		c0-18.5-3.16-35.46-7.96-51.61c-8.37,14.63-19.95,27.6-35.63,38.5c-26.72,18.57-54.9,25.19-84.42,20.03
		c-2.21-0.39-4.32-0.95-6.47-1.45c0.28-2.19,0.49-4.36,0.89-6.57c5.45-29.47,21.59-53.41,48.31-71.98
		c18.69-12.99,38.13-19.77,58.21-21.13c-6.19-9.29-13.38-18.1-21.7-26.34c-20.38-20.19-44.54-33.23-71.66-40.72
		c2.35,9.17,4.03,18.71,4.28,29.07c0.79,32.53-9.19,59.7-29.76,81.5c-1.54,1.63-3.17,3.09-4.77,4.6c-1.67-1.43-3.37-2.81-4.99-4.36
		c-21.6-20.77-32.7-47.43-33.49-79.96c-0.33-13.4,1.63-25.66,4.95-37.24c-44.12,2.53-81.42,17.96-111.17,47.43
		c-32.51,32.21-48.77,72.39-48.77,120.54c0,48.16,16.26,88.34,48.77,120.54c16.18,16.03,34.51,28.08,54.95,36.17
		c-21.9-17.63-35.8-39.31-40.67-65.66c-0.41-2.21-0.62-4.38-0.89-6.56c2.14-0.5,4.26-1.06,6.47-1.45
		c29.52-5.17,57.7,1.45,84.42,20.02c23.98,16.67,38.96,37.92,45.82,63.35c37.74-4.95,70.12-20.02,96.52-46.18
		c1.48-1.46,2.47-3.17,3.88-4.66C544.41,434.57,516.68,441.03,487.63,435.95z M467.27,355.92c-29.52,5.17-57.7-1.45-84.42-20.02
		c-26.72-18.57-42.86-42.51-48.31-71.98c-0.41-2.21-0.62-4.38-0.89-6.57c2.14-0.5,4.26-1.06,6.47-1.45
		c29.52-5.17,57.7,1.45,84.42,20.03c26.72,18.57,42.86,42.51,48.31,71.98c0.41,2.2,0.62,4.38,0.89,6.56
		C471.59,354.97,469.48,355.53,467.27,355.92z"/>
</g>
</svg>
